<svg viewBox="0 0 1024 1024" xmlns="http://www.w3.org/2000/svg" width="200" height="200"><path d="M104.253793 834.436414C75.881931 834.436414 52.965517 858.482759 52.965517 888.28469v81.867034C52.965517 999.847724 75.987862 1024 104.253793 1024h66.983724v-74.328276H104.253793c10.681379 0 19.332414 9.057103 19.332414 20.48v-81.867034c0 11.29931-8.756966 20.48-19.332414 20.48h66.983724v-74.328276H104.253793zM919.746207 1024C948.118069 1024 971.034483 999.953655 971.034483 970.151724v-81.867034c0-29.696-23.022345-53.848276-51.288276-53.848276h-66.983724l34.833655 31.020138C854.157241 655.660138 716.25269 499.923862 512 499.923862c-204.270345 0-342.157241 155.718621-375.596138 365.53269l69.649655 12.305655c27.753931-174.150621 136.315586-303.492414 305.946483-303.492414s278.192552 129.341793 305.946483 303.492414l4.943448 31.020138h96.856276c-10.681379 0-19.332414-9.074759-19.332414-20.497655v81.867034c0-11.29931 8.756966-20.48 19.332414-20.48h-66.983724V1024h66.983724zM104.253793 0C75.881931 0 52.965517 24.046345 52.965517 53.848276v81.867034c0 29.696 23.022345 53.848276 51.288276 53.848276h66.983724L136.403862 158.543448C169.842759 368.339862 307.74731 524.076138 512 524.076138c204.270345 0 342.157241-155.718621 375.596138-365.53269L852.744828 189.563586h66.983724c28.371862 0 51.288276-24.046345 51.288276-53.848276V53.848276C971.034483 24.152276 948.012138 0 919.746207 0h-66.983724v74.328276h66.983724C909.064828 74.328276 900.413793 65.288828 900.413793 53.848276v81.867034c0-11.29931 8.756966-20.48 19.332414-20.48H822.907586l-4.943448 31.002483c-27.753931 174.150621-136.315586 303.492414-305.946483 303.492414s-278.192552-129.341793-305.946483-303.492414l-4.943448-31.020138H104.253793C114.935172 115.217655 123.586207 124.292414 123.586207 135.71531V53.848276c0 11.29931-8.756966 20.48-19.332414 20.48h66.983724V0H104.253793zM852.744828 74.328276V0H171.255172v74.328276H852.744828zM171.255172 115.23531v74.328276H852.744828v-74.328276H171.255172zM852.744828 908.782345v-74.328276H171.255172v74.328276H852.744828zM171.255172 949.654069V1024H852.744828v-74.328276H171.255172z"></path></svg>