<svg viewBox="0 0 1260 1024" xmlns="http://www.w3.org/2000/svg" width="200" height="200"><path d="M1196.662154 424.881231l7.640615-1.732923a75.382154 75.382154 0 0 0 54.980923-70.892308v-265.452308c0-47.261538-38.439385-85.700923-85.700923-85.700923H85.937231C38.675692 1.102769 0.315077 39.542154 0.315077 86.803692v264.349539c0 36.233846 25.836308 67.111385 61.44 73.491692l2.678154 0.472615c28.356923 5.12 48.915692 29.696 48.915692 58.604308 0 28.435692-20.48 53.169231-51.593846 59.155692a75.224615 75.224615 0 0 0-61.44 72.467693v265.294769c0 47.261538 38.439385 85.700923 85.622154 85.700923H1173.661538c47.261538 0 85.700923-38.439385 85.700924-85.700923V616.290462c0-36.233846-25.915077-67.111385-64.196924-73.964308a59.392 59.392 0 0 1-48.915692-58.604308 59.864615 59.864615 0 0 1 50.412308-58.840615z m-15.36 194.166154v261.592615a7.876923 7.876923 0 0 1-7.719385 7.719385H483.249231c0.236308-2.048 1.181538-3.859692 1.181538-5.986462V713.334154a45.134769 45.134769 0 0 0-45.056-45.056 45.134769 45.134769 0 0 0-44.977231 45.056v169.038769c0 2.126769 0.945231 3.938462 1.181539 5.986462h-309.563077a7.876923 7.876923 0 0 1-7.798154-7.719385V619.126154l2.914462-0.551385A138.397538 138.397538 0 0 0 191.330462 483.643077c0-66.244923-47.025231-122.88-113.112616-135.325539V86.803692a7.876923 7.876923 0 0 1 7.719385-7.719384h309.641846c-0.236308 2.048-1.181538 3.859692-1.181539 5.986461v169.038769c0 24.733538 20.243692 44.977231 44.977231 44.977231a45.134769 45.134769 0 0 0 45.056-44.977231V85.070769c0-2.126769-0.945231-3.938462-1.181538-5.986461h690.333538a7.876923 7.876923 0 0 1 7.798154 7.719384v260.726154l-3.072 1.496616a138.397538 138.397538 0 0 0-110.040615 134.695384c0 65.772308 46.237538 122.092308 113.112615 135.325539z"></path><path d="M439.374769 373.681231a45.134769 45.134769 0 0 0-44.977231 44.977231v130.048c0 24.812308 20.243692 45.056 44.977231 45.056a45.134769 45.134769 0 0 0 45.056-45.056v-129.969231a45.134769 45.134769 0 0 0-45.056-45.056z"></path></svg>
