<svg viewBox="0 0 1024 1024" xmlns="http://www.w3.org/2000/svg" width="200" height="200"><path d="M650.666667 42.666667a32.277333 32.277333 0 0 1 14.592 3.52l1.408 0.768a36.224 36.224 0 0 1 4.202666 2.88l0.533334 0.448 1.472 1.344 214.186666 214.186666 0.661334 0.704 0.170666 0.192-1.28-1.344 1.770667 1.92 0.704 0.853334a33.642667 33.642667 0 0 1 1.877333 2.602666l0.746667 1.258667 0.768 1.386667c2.261333 4.394667 3.52 9.344 3.52 14.613333V938.666667a42.666667 42.666667 0 0 1-42.666667 42.666666H170.666667a42.666667 42.666667 0 0 1-42.666667-42.666666V85.333333a42.666667 42.666667 0 0 1 42.666667-42.666666h480zM576 106.666667H192v810.666666h640V362.666667H618.666667a42.666667 42.666667 0 0 1-42.666667-42.666667V106.666667z m-32 554.666666a32 32 0 0 1 0 64h-170.666667a32 32 0 0 1 0-64h170.666667z m110.229333-192c15.701333 0 28.437333 14.336 28.437334 32s-12.736 32-28.437334 32H369.770667C354.069333 533.333333 341.333333 518.997333 341.333333 501.333333s12.736-32 28.437334-32h284.458666zM640 109.248V298.666667h189.418667L640 109.248z"></path></svg>
