<svg viewBox="0 0 1024 1024" xmlns="http://www.w3.org/2000/svg" width="200" height="200"><path d="M184 184v208h208V184H184z m-40-72h288c17.673 0 32 14.327 32 32v288c0 17.673-14.327 32-32 32H144c-17.673 0-32-14.327-32-32V144c0-17.673 14.327-32 32-32z m506.44 175.293l86.267 86.267 84.853-84.853-86.267-86.267-84.853 84.853z m107.48-152.735L889.442 266.08c12.497 12.496 12.497 32.758 0 45.255L759.335 441.442c-12.497 12.497-32.759 12.497-45.255 0L582.558 309.92c-12.497-12.496-12.497-32.758 0-45.255l130.107-130.107c12.497-12.497 32.759-12.497 45.255 0zM184 632v208h208V632H184z m-40-72h288c17.673 0 32 14.327 32 32v288c0 17.673-14.327 32-32 32H144c-17.673 0-32-14.327-32-32V592c0-17.673 14.327-32 32-32z m488 72v208h208V632H632z m-40-72h288c17.673 0 32 14.327 32 32v288c0 17.673-14.327 32-32 32H592c-17.673 0-32-14.327-32-32V592c0-17.673 14.327-32 32-32z"></path></svg>
