<svg viewBox="0 0 1024 1024" xmlns="http://www.w3.org/2000/svg" width="200" height="200"><path d="M256 0 51.2 0C23.04 0 0 23.04 0 51.2L0 256c0 28.16 23.04 51.2 51.2 51.2L256 307.2c28.16 0 51.2-23.04 51.2-51.2L307.2 51.2C307.2 23.04 284.16 0 256 0zM256 230.4C256 244.544 244.544 256 230.4 256L76.8 256C62.656 256 51.2 244.544 51.2 230.4L51.2 76.8c0-14.144 11.456-25.6 25.6-25.6l153.6 0C244.544 51.2 256 62.656 256 76.8L256 230.4z"></path><path d="M256 716.8 51.2 716.8C23.04 716.8 0 739.84 0 768l0 204.8C0 1000.96 23.04 1024 51.2 1024L256 1024c28.16 0 51.2-23.04 51.2-51.2L307.2 768C307.2 739.84 284.16 716.8 256 716.8zM256 947.2c0 14.144-11.456 25.6-25.6 25.6L76.8 972.8c-14.144 0-25.6-11.456-25.6-25.6l0-153.6c0-14.144 11.456-25.6 25.6-25.6l153.6 0C244.544 768 256 779.456 256 793.6L256 947.2z"></path><path d="M972.8 716.8 768 716.8c-28.16 0-51.2 23.04-51.2 51.2l0 204.8c0 28.16 23.04 51.2 51.2 51.2l204.8 0c28.16 0 51.2-23.04 51.2-51.2L1024 768C1024 739.84 1000.96 716.8 972.8 716.8zM972.8 947.2c0 14.144-11.456 25.6-25.6 25.6l-153.6 0c-14.144 0-25.6-11.456-25.6-25.6l0-153.6c0-14.144 11.456-25.6 25.6-25.6l153.6 0c14.144 0 25.6 11.456 25.6 25.6L972.8 947.2z"></path><path d="M614.4 716.8 409.6 716.8c-28.16 0-51.2 23.04-51.2 51.2l0 204.8c0 28.16 23.04 51.2 51.2 51.2l204.8 0c28.16 0 51.2-23.04 51.2-51.2L665.6 768C665.6 739.84 642.56 716.8 614.4 716.8zM614.4 947.2c0 14.144-11.456 25.6-25.6 25.6L435.2 972.8c-14.144 0-25.6-11.456-25.6-25.6l0-153.6c0-14.144 11.456-25.6 25.6-25.6l153.6 0c14.144 0 25.6 11.456 25.6 25.6L614.4 947.2z"></path><path d="M972.8 0 768 0c-28.16 0-51.2 23.04-51.2 51.2L716.8 256c0 28.16 23.04 51.2 51.2 51.2l204.8 0C1000.96 307.2 1024 284.16 1024 256L1024 51.2C1024 23.04 1000.96 0 972.8 0zM972.8 230.4c0 14.144-11.456 25.6-25.6 25.6l-153.6 0C779.456 256 768 244.544 768 230.4L768 76.8c0-14.144 11.456-25.6 25.6-25.6l153.6 0c14.144 0 25.6 11.456 25.6 25.6L972.8 230.4z"></path><path d="M614.4 0 409.6 0C381.44 0 358.4 23.04 358.4 51.2L358.4 256c0 28.16 23.04 51.2 51.2 51.2l204.8 0c28.16 0 51.2-23.04 51.2-51.2L665.6 51.2C665.6 23.04 642.56 0 614.4 0zM614.4 230.4C614.4 244.544 602.944 256 588.8 256L435.2 256C421.056 256 409.6 244.544 409.6 230.4L409.6 76.8c0-14.144 11.456-25.6 25.6-25.6l153.6 0c14.144 0 25.6 11.456 25.6 25.6L614.4 230.4z"></path><path d="M256 358.4 51.2 358.4C23.04 358.4 0 381.44 0 409.6l0 204.8c0 28.16 23.04 51.2 51.2 51.2L256 665.6c28.16 0 51.2-23.04 51.2-51.2L307.2 409.6C307.2 381.44 284.16 358.4 256 358.4zM256 588.8c0 14.144-11.456 25.6-25.6 25.6L76.8 614.4c-14.144 0-25.6-11.456-25.6-25.6L51.2 435.2c0-14.144 11.456-25.6 25.6-25.6l153.6 0C244.544 409.6 256 421.056 256 435.2L256 588.8z"></path><path d="M972.8 358.4 768 358.4c-28.16 0-51.2 23.04-51.2 51.2l0 204.8c0 28.16 23.04 51.2 51.2 51.2l204.8 0c28.16 0 51.2-23.04 51.2-51.2L1024 409.6C1024 381.44 1000.96 358.4 972.8 358.4zM972.8 588.8c0 14.144-11.456 25.6-25.6 25.6l-153.6 0c-14.144 0-25.6-11.456-25.6-25.6L768 435.2c0-14.144 11.456-25.6 25.6-25.6l153.6 0c14.144 0 25.6 11.456 25.6 25.6L972.8 588.8z"></path><path d="M614.4 358.4 409.6 358.4c-28.16 0-51.2 23.04-51.2 51.2l0 204.8c0 28.16 23.04 51.2 51.2 51.2l204.8 0c28.16 0 51.2-23.04 51.2-51.2L665.6 409.6C665.6 381.44 642.56 358.4 614.4 358.4zM614.4 588.8c0 14.144-11.456 25.6-25.6 25.6L435.2 614.4c-14.144 0-25.6-11.456-25.6-25.6L409.6 435.2c0-14.144 11.456-25.6 25.6-25.6l153.6 0c14.144 0 25.6 11.456 25.6 25.6L614.4 588.8z"></path></svg>
