<svg viewBox="0 0 1024 1024" xmlns="http://www.w3.org/2000/svg" width="200" height="200"><path d="M847.8 64.8H176.2c-61.8 0-111.9 50.1-111.9 111.8v670.8c0 61.8 50.1 111.8 111.9 111.8h671.5c61.8 0 111.9-50.1 111.9-111.8V176.6c0.1-61.7-50.1-111.8-111.8-111.8z m-658.6 71.1h645.4c29.7 0 53.8 24 53.8 53.7V640L751.2 454.8c-6.8-9.3-17.8-14.9-29.6-15.2-11.8-0.3-23.1 4.7-30.4 13.6L491.3 694.4l-128.9-117c-13.2-12-33.6-13.2-48.2-2.8L135.5 701.4V189.6c0-29.6 24-53.7 53.7-53.7zM834.7 888H189.2c-29.7 0-53.8-24-53.8-53.7v-44.1c2.2-1 4.4-2.2 6.4-3.7l191.8-136 135.7 123.2c7.7 7 18 10.5 28.5 9.8s20.2-5.6 26.8-13.5L719 535.5l154.7 209c3.9 5.3 9.1 9.2 14.8 11.8v78c0 29.6-24.1 53.7-53.8 53.7z"></path><path d="M341 424c57.3 0 104-46.7 104-104s-46.7-104-104-104-104 46.7-104 104 46.7 104 104 104z m0-136c17.7 0 32 14.3 32 32s-14.3 32-32 32-32-14.3-32-32 14.2-32 32-32z"></path></svg>
