<svg viewBox="0 0 1024 1024" xmlns="http://www.w3.org/2000/svg" width="200" height="200"><path d="M512.621 702.604c-116.589-0.019-233.178 0.193-349.766-0.159-32.394-0.098-53.927-15.853-62.362-43.253-8.248-26.797-0.212-55.566 23.746-69.788 12.917-7.669 29.787-12.112 44.896-12.161 228.764-0.746 457.527-0.712 686.29-0.337 37.524 0.062 59.414 15.016 68.528 42.992 8.917 27.359 2.082 55.065-22.342 70.053-13.308 8.161-31.264 12.002-47.171 12.14-113.925 0.991-227.874 0.529-341.819 0.513zM512.217 65.037c115.729 0.006 231.469-0.342 347.192 0.169 49.744 0.22 80.292 41.991 63.932 85.535-9.741 25.904-32.379 40.637-64.803 40.755-78.626 0.291-157.252 0.112-235.877 0.112-151.951-0.003-303.902 0.215-455.858-0.147-49.108-0.117-79.781-38.671-66.362-81.782 9.005-28.932 31.781-44.5 67.237-44.567 114.843-0.214 229.691-0.079 344.539-0.075zM480.223 447.039c-106.086 0-212.167 0.286-318.249-0.176-30.797-0.134-51.693-15.587-60.884-41.986-8.845-25.406-2.617-53.828 19.807-68.704 13.181-8.741 30.85-14.961 46.533-15.037 208.629-0.968 417.264-0.865 625.902-0.463 42.071 0.083 69.863 26.523 69.948 63.625 0.082 36.997-27.752 62.585-70.104 62.738-104.319 0.378-208.64 0.125-312.954 0.125l0.001-0.122zM480 833.518c106.071 0.026 212.151-0.248 318.234 0.198 30.74 0.129 52.497 15.864 61.284 41.479 8.715 25.436 2.456 54.011-19.493 68.994-12.346 8.43-29.067 14.621-43.854 14.689-210.385 0.927-420.781 0.813-631.166 0.48-39.735-0.062-67.45-26.744-67.714-62.755-0.264-36.206 27.011-62.75 67.118-62.946 105.195-0.512 210.391-0.17 315.591-0.139z"></path></svg>
