<svg viewBox="0 0 1024 1024" xmlns="http://www.w3.org/2000/svg" width="200" height="200"><path d="M53.894737 53.894737v916.210526h538.947368V53.894737H53.894737z m485.052631 862.315789H107.789474V107.789474h431.157894v808.421052zM970.105263 279.713684L852.075789 161.684211l-38.265263 38.265263 80.303158 80.303158H646.736842v53.894736h247.376842L813.810526 414.450526l38.265263 38.265263L970.105263 334.686316l-0.538947-0.538948H970.105263v-53.894736h-0.538947zM970.105263 689.313684l-118.029474-118.029473-38.265263 38.265263 80.303158 80.303158H646.736842v53.894736h247.376842l-80.303158 80.303158 38.265263 38.265263L970.105263 744.286316l-0.538947-0.538948H970.105263v-53.894736h-0.538947z" ></path><path d="M215.578947 53.894737h53.894737v916.210526H215.578947zM377.263158 53.894737h53.894737v916.210526H377.263158z" ></path></svg>
