<svg viewBox="0 0 1024 1024" xmlns="http://www.w3.org/2000/svg" width="200" height="200"><path d="M384 0H78C34.9 0 0 34.9 0 78v306c0 43.1 34.9 78 78 78h306c43.1 0 78-34.9 78-78V78c0-43.1-34.9-78-78-78zM946 0H640c-43.1 0-78 34.9-78 78v306c0 43.1 34.9 78 78 78h306c43.1 0 78-34.9 78-78V78c0-43.1-34.9-78-78-78zM384 562H78c-43.1 0-78 34.9-78 78v306c0 43.1 34.9 78 78 78h306c43.1 0 78-34.9 78-78V640c0-43.1-34.9-78-78-78zM946 562H640c-43.1 0-78 34.9-78 78v306c0 43.1 34.9 78 78 78h306c43.1 0 78-34.9 78-78V640c0-43.1-34.9-78-78-78z"></path></svg>
